<svg display='none' xmlns="http://www.w3.org/2000/svg">
<symbol  fill="none" viewBox="0 0 88 32" id='logo'>
<path d="M10.6011 0.456055H16.1137L26.3906 31.1461H20.7993L18.2006 23.4952H8.43549L5.87609 31.1461H0.28479L10.6011 0.456055ZM17.2162 19.3023L13.3574 6.63729L9.34112 19.3023H17.2162Z" fill="white"/>
<path d="M32.3708 0.456055L39.3008 11.7811L46.1915 0.456055H52.0978L42.4115 16.0172L51.7828 31.1461H45.8765L39.3008 20.2533L32.6858 31.1461H26.7401L36.1114 16.0172L26.4251 0.456055H32.3708Z" fill="white"/>
<path d="M54.9125 31.1461V0.456055H60.3463V31.1461H54.9125Z" fill="#EC7979"/>
<path d="M87.0874 5.68633H78.1492V31.1461H72.7548V5.68633H63.8166V0.456055H87.0874V5.68633Z" fill="#EC7979"/>
</symbol>

<symbol width="20" height="21" viewBox="0 0 20 21" id='cross-logo'>
<path d="M0.454102 17.9248L8.93938 9.43952L17.4247 0.954242L19.546 3.07556L2.57542 20.0461L0.454102 17.9248Z" fill="white"/>
<path d="M2.57544 0.954102L11.0607 9.43938L19.546 17.9247L17.4247 20.046L0.454119 3.07542L2.57544 0.954102Z" fill="white"/>
</symbol>

<symbol  viewBox="0 0 70 70" fill="none" id='facebook'>
<path d="M26.827 62.7083H38.4937V39.3458H49.0054L50.1604 27.7375H38.4937V21.875C38.4937 21.1014 38.801 20.3595 39.348 19.8126C39.8949 19.2656 40.6368 18.9583 41.4104 18.9583H50.1604V7.29163H41.4104C37.5426 7.29163 33.8333 8.82808 31.0984 11.563C28.3635 14.2979 26.827 18.0072 26.827 21.875V27.7375H20.9937L19.8387 39.3458H26.827V62.7083Z" fill="#CCCCCC"/>
</symbol>

<symbol  viewBox="0 0 70 70" fill="none" id='twitter'>
<path d="M57.2629 23.3247C57.3008 23.8351 57.3008 24.3426 57.3008 24.8501C57.3008 40.3813 45.4796 58.278 23.8758 58.278C17.22 58.278 11.0366 56.3501 5.83331 53.0018C6.77831 53.1097 7.68831 53.1476 8.67123 53.1476C13.9591 53.1604 19.0973 51.3922 23.2575 48.128C20.8058 48.0836 18.4292 47.2748 16.4594 45.8143C14.4897 44.3539 13.0252 42.3148 12.2704 39.9818C12.9966 40.0897 13.7258 40.1626 14.49 40.1626C15.5429 40.1626 16.6016 40.0168 17.5846 39.763C14.9239 39.2258 12.5314 37.7836 10.8139 35.6817C9.09637 33.5797 8.15992 30.9478 8.16373 28.2334V28.0876C9.72998 28.9597 11.5471 29.5051 13.4721 29.578C11.8594 28.5064 10.5371 27.0522 9.62305 25.3453C8.70903 23.6384 8.23173 21.7317 8.23373 19.7955C8.23373 17.6138 8.81415 15.613 9.83206 13.8688C12.7841 17.5001 16.466 20.4709 20.6393 22.5887C24.8126 24.7065 29.3841 25.924 34.0579 26.1626C33.8771 25.2876 33.7662 24.3805 33.7662 23.4705C33.7655 21.9275 34.0688 20.3994 34.659 18.9737C35.2491 17.548 36.1144 16.2526 37.2055 15.1615C38.2966 14.0704 39.592 13.205 41.0178 12.6149C42.4435 12.0248 43.9715 11.7214 45.5146 11.7222C48.8979 11.7222 51.9516 13.1397 54.0983 15.4322C56.7285 14.9236 59.2507 13.9634 61.5533 12.5943C60.6766 15.3091 58.8401 17.6112 56.3879 19.0693C58.7206 18.8032 61.0004 18.1897 63.1516 17.2493C61.5449 19.5916 59.554 21.6457 57.2629 23.3247Z" fill="#CCCCCC"/>
</symbol>

<symbol  viewBox="0 0 70 70" fill="none" id='linkedin'>
<path d="M58.3333 8.75H11.6667C10.8931 8.75 10.1513 9.05729 9.60427 9.60427C9.05729 10.1513 8.75 10.8931 8.75 11.6667V58.3333C8.75 59.1069 9.05729 59.8488 9.60427 60.3957C10.1513 60.9427 10.8931 61.25 11.6667 61.25H58.3333C59.1069 61.25 59.8488 60.9427 60.3957 60.3957C60.9427 59.8488 61.25 59.1069 61.25 58.3333V11.6667C61.25 10.8931 60.9427 10.1513 60.3957 9.60427C59.8488 9.05729 59.1069 8.75 58.3333 8.75ZM24.3221 53.4829H16.5287V28.4287H24.3221V53.4829ZM20.4254 25.0075C19.228 25.0075 18.0796 24.5318 17.2328 23.6851C16.3861 22.8384 15.9104 21.69 15.9104 20.4925C15.9104 19.295 16.3861 18.1466 17.2328 17.2999C18.0796 16.4532 19.228 15.9775 20.4254 15.9775C21.6229 15.9775 22.7713 16.4532 23.618 17.2999C24.4647 18.1466 24.9404 19.295 24.9404 20.4925C24.9404 21.69 24.4647 22.8384 23.618 23.6851C22.7713 24.5318 21.6229 25.0075 20.4254 25.0075ZM53.4858 53.4829H45.7012V41.3C45.7012 38.395 45.6488 34.6588 41.6529 34.6588C37.5988 34.6588 36.9833 37.8263 36.9833 41.0958V53.4858H29.2046V28.4317H36.6713V31.8558H36.7792C37.8146 29.8871 40.3579 27.8104 44.1408 27.8104C52.0275 27.8104 53.4829 32.9963 53.4829 39.7454V53.4829H53.4858Z" fill="#CCCCCC"/>
</symbol>

<symbol  viewBox="0 0 70 70" fill="none" id='pinterest'>
<path d="M26.3667 62.8251C29.1667 63.6709 31.9958 64.1667 35 64.1667C42.7355 64.1667 50.1542 61.0938 55.624 55.624C61.0938 50.1542 64.1667 42.7355 64.1667 35C64.1667 31.1698 63.4123 27.3771 61.9465 23.8384C60.4807 20.2998 58.3323 17.0845 55.624 14.3761C52.9156 11.6677 49.7003 9.51932 46.1616 8.05355C42.623 6.58779 38.8302 5.83337 35 5.83337C31.1698 5.83337 27.3771 6.58779 23.8384 8.05355C20.2997 9.51932 17.0844 11.6677 14.3761 14.3761C8.90625 19.8459 5.83334 27.2646 5.83334 35C5.83334 47.3959 13.6208 58.0417 24.6167 62.2417C24.3542 59.9667 24.0917 56.2042 24.6167 53.6084L27.9708 39.2C27.9708 39.2 27.125 37.5084 27.125 34.825C27.125 30.8 29.6333 27.7959 32.4917 27.7959C35 27.7959 36.1667 29.6334 36.1667 31.9959C36.1667 34.5042 34.5042 38.0917 33.6583 41.5334C33.1625 44.3917 35.175 46.9 38.0917 46.9C43.2833 46.9 47.3083 41.3584 47.3083 33.5417C47.3083 26.5417 42.2917 21.7584 35.0875 21.7584C26.8625 21.7584 22.0208 27.8834 22.0208 34.3292C22.0208 36.8375 22.8375 39.375 24.1792 41.0375C24.4417 41.2125 24.4417 41.4459 24.3542 41.8834L23.5083 45.0625C23.5083 45.5584 23.1875 45.7334 22.6917 45.3834C18.9583 43.75 16.8 38.4417 16.8 34.1542C16.8 24.9375 23.3333 16.5667 35.9333 16.5667C45.9667 16.5667 53.7834 23.7709 53.7834 33.3375C53.7834 43.3709 47.5709 51.4209 38.675 51.4209C35.8458 51.4209 33.075 49.9042 32.0833 48.125L30.1292 55.0375C29.4583 57.5459 27.6208 60.9 26.3667 62.9125V62.8251Z" fill="#CCCCCC"/>
</symbol>

<symbol  viewBox="0 0 70 70" fill="none" id='instagram'>
<path d="M61.0956 24.2228C61.0661 22.0138 60.6526 19.8267 59.8735 17.7595C59.1978 16.0157 58.1659 14.4321 56.8436 13.1098C55.5212 11.7875 53.9376 10.7555 52.1939 10.0799C50.1532 9.31383 47.9973 8.89962 45.8181 8.85487C43.0122 8.72946 42.1226 8.69446 35.0001 8.69446C27.8776 8.69446 26.9647 8.69446 24.1793 8.85487C22.001 8.89995 19.8462 9.31416 17.8064 10.0799C16.0624 10.7551 14.4785 11.7868 13.1562 13.1092C11.8338 14.4316 10.802 16.0155 10.1268 17.7595C9.35923 19.7986 8.94592 21.9539 8.90473 24.1324C8.77931 26.9411 8.74139 27.8307 8.74139 34.9532C8.74139 42.0757 8.74139 42.9857 8.90473 45.774C8.94848 47.9557 9.35973 50.1082 10.1268 52.1528C10.8031 53.8963 11.8357 55.4795 13.1585 56.8013C14.4813 58.1231 16.0653 59.1545 17.8093 59.8295C19.8435 60.6263 21.9987 61.0701 24.1822 61.142C26.991 61.2674 27.8806 61.3053 35.0031 61.3053C42.1256 61.3053 43.0385 61.3053 45.8239 61.142C48.0031 61.099 50.1591 60.6858 52.1997 59.9199C53.943 59.2434 55.5262 58.2112 56.8484 56.889C58.1707 55.5668 59.2029 53.9836 59.8793 52.2403C60.6464 50.1986 61.0576 48.0461 61.1014 45.8615C61.2268 43.0557 61.2647 42.1661 61.2647 35.0407C61.2589 27.9182 61.2589 27.014 61.0956 24.2228ZM34.9826 48.4224C27.5335 48.4224 21.4989 42.3878 21.4989 34.9386C21.4989 27.4895 27.5335 21.4549 34.9826 21.4549C38.5588 21.4549 41.9884 22.8755 44.5171 25.4042C47.0458 27.9329 48.4664 31.3625 48.4664 34.9386C48.4664 38.5147 47.0458 41.9444 44.5171 44.4731C41.9884 47.0018 38.5588 48.4224 34.9826 48.4224ZM49.0031 24.1003C48.5901 24.1007 48.181 24.0196 47.7994 23.8617C47.4177 23.7039 47.071 23.4723 46.7789 23.1802C46.4869 22.8882 46.2553 22.5414 46.0974 22.1598C45.9396 21.7782 45.8585 21.3691 45.8589 20.9561C45.8589 20.5434 45.9402 20.1348 46.0981 19.7535C46.2561 19.3722 46.4875 19.0257 46.7794 18.7339C47.0712 18.4421 47.4176 18.2106 47.7989 18.0526C48.1802 17.8947 48.5889 17.8134 49.0016 17.8134C49.4143 17.8134 49.823 17.8947 50.2043 18.0526C50.5856 18.2106 50.932 18.4421 51.2238 18.7339C51.5157 19.0257 51.7472 19.3722 51.9051 19.7535C52.063 20.1348 52.1443 20.5434 52.1443 20.9561C52.1443 22.6945 50.7385 24.1003 49.0031 24.1003Z" fill="#CCCCCC"/>
<path d="M34.9829 43.6974C39.8202 43.6974 43.7416 39.776 43.7416 34.9387C43.7416 30.1014 39.8202 26.1799 34.9829 26.1799C30.1456 26.1799 26.2242 30.1014 26.2242 34.9387C26.2242 39.776 30.1456 43.6974 34.9829 43.6974Z" fill="#CCCCCC"/>
</symbol>

<symbol  viewBox="0 0 70 70" fill="none" id='github'>
<path fill-rule="evenodd" clip-rule="evenodd" d="M35.0754 5.83337C19.0075 5.83337 5.98454 18.8563 5.98454 34.9242C5.98454 47.775 14.3175 58.6805 25.8791 62.5305C27.3345 62.793 27.8595 61.8975 27.8595 61.1275C27.8595 60.4363 27.8362 58.6046 27.8275 56.1809C19.7337 57.9367 18.0245 52.2784 18.0245 52.2784C16.7062 48.9184 14.7958 48.023 14.7958 48.023C12.1562 46.2175 14.997 46.2584 14.997 46.2584C17.9195 46.4625 19.4508 49.2567 19.4508 49.2567C22.0466 53.7017 26.2641 52.4184 27.915 51.6746C28.1804 49.7934 28.9387 48.51 29.767 47.7838C23.3095 47.0517 16.5195 44.555 16.5195 33.4046C16.5195 30.2342 17.6541 27.6325 19.5062 25.6025C19.2116 24.8646 18.2054 21.9042 19.795 17.9025C19.795 17.9025 22.2362 17.118 27.7925 20.8805C30.1654 20.2349 32.6132 19.9054 35.0725 19.9005C37.5317 19.9044 39.9797 20.234 42.3525 20.8805C47.9116 17.115 50.35 17.9025 50.35 17.9025C51.9395 21.9042 50.942 24.8646 50.6387 25.6025C52.5054 27.6325 53.6254 30.2313 53.6254 33.4046C53.6254 44.5842 46.8295 47.04 40.3487 47.7605C41.3841 48.6588 42.3175 50.4321 42.3175 53.1446C42.3175 57.0355 42.2825 60.1738 42.2825 61.1275C42.2825 61.9063 42.8016 62.8105 44.2862 62.5246C55.842 58.6688 64.1662 47.7721 64.1662 34.9242C64.1662 18.8563 51.1433 5.83337 35.0754 5.83337Z" fill="#CCCCCC"/>
</symbol>

<symbol  viewBox="0 0 70 70" fill="none" id='rss'>
<path d="M18.025 58.3334C21.5366 58.3334 24.3833 55.4866 24.3833 51.975C24.3833 48.4634 21.5366 45.6167 18.025 45.6167C14.5134 45.6167 11.6667 48.4634 11.6667 51.975C11.6667 55.4866 14.5134 58.3334 18.025 58.3334Z" fill="#CCCCCC"/>
<path d="M11.6667 12.9498V21.204C32.1708 21.204 48.7958 37.829 48.7958 58.3332H57.05C57.05 33.279 36.7208 12.9498 11.6667 12.9498ZM11.6667 29.4582V37.7123C23.0417 37.7123 32.2875 46.9582 32.2875 58.3332H40.5417C40.5417 42.379 27.6208 29.4582 11.6667 29.4582Z" fill="#CCCCCC"/>
</symbol>

<symbol  width="92" height="92" viewBox="0 0 92 92" fill="none" id='bulb'>
<path d="M76.5232 103.136H93.4733H76.5232ZM85 52.3549V55.9821V52.3549ZM108.084 61.9163L105.519 64.4807L108.084 61.9163ZM117.645 85H114.018H117.645ZM55.9821 85H52.3549H55.9821ZM64.4807 64.4807L61.9163 61.9163L64.4807 64.4807ZM72.1741 97.8259C69.6382 95.2894 67.9114 92.0578 67.212 88.5398C66.5126 85.0219 66.872 81.3756 68.2448 78.0619C69.6176 74.7482 71.9422 71.916 74.9246 69.9234C77.907 67.9307 81.4132 66.8672 85 66.8672C88.5868 66.8672 92.0931 67.9307 95.0755 69.9234C98.0578 71.916 100.382 74.7482 101.755 78.0619C103.128 81.3756 103.487 85.0219 102.788 88.5398C102.089 92.0578 100.362 95.2894 97.8259 97.8259L95.8382 99.81C94.7018 100.947 93.8005 102.296 93.1856 103.781C92.5707 105.266 92.2543 106.857 92.2545 108.465V110.391C92.2545 112.315 91.4902 114.16 90.1297 115.52C88.7692 116.881 86.924 117.645 85 117.645C83.076 117.645 81.2308 116.881 79.8703 115.52C78.5099 114.16 77.7455 112.315 77.7455 110.391V108.465C77.7455 105.218 76.4542 102.102 74.1618 99.81L72.1741 97.8259Z" stroke="#EC7979" stroke-width="6.83333" stroke-linecap="round" stroke-linejoin="round"/>
<circle cx="85" cy="85" r="45.5" stroke="#EC7979"/>
</symbol>

<symbol viewBox="0 0 92 92" fill="none" id='keyboard'>
<path d="M110.573 62C112.543 62 114.432 62.7786 115.825 64.1645C117.218 65.5505 118 67.4302 118 69.3902V100.61C118 102.57 117.218 104.45 115.825 105.835C114.432 107.221 112.543 108 110.573 108H59.427C58.4517 108 57.4859 107.809 56.5848 107.437C55.6838 107.066 54.865 106.522 54.1754 105.835C53.4858 105.149 52.9387 104.335 52.5655 103.438C52.1922 102.541 52.0001 101.58 52.0001 100.61V69.3902C52.0001 67.4302 52.7826 65.5505 54.1754 64.1645C55.5682 62.7786 57.4573 62 59.427 62H110.573ZM110.573 66.9268H59.427C58.7704 66.9268 58.1407 67.1863 57.6765 67.6483C57.2122 68.1103 56.9514 68.7369 56.9514 69.3902V100.61C56.9514 101.97 58.0604 103.073 59.427 103.073H110.573C111.23 103.073 111.86 102.814 112.324 102.352C112.788 101.89 113.049 101.263 113.049 100.61V69.3902C113.049 68.7369 112.788 68.1103 112.324 67.6483C111.86 67.1863 111.23 66.9268 110.573 66.9268ZM67.679 93.2031H102.338C102.965 93.2033 103.569 93.4404 104.027 93.8665C104.485 94.2926 104.764 94.876 104.807 95.4986C104.85 96.1213 104.653 96.737 104.257 97.2211C103.862 97.7053 103.296 98.0219 102.674 98.107L102.338 98.13H67.679C67.0518 98.1298 66.448 97.8927 65.9897 97.4666C65.5314 97.0405 65.2527 96.4571 65.2099 95.8345C65.1672 95.2118 65.3636 94.5961 65.7594 94.112C66.1552 93.6278 66.721 93.3112 67.3424 93.2261L67.679 93.2031H102.338H67.679ZM99.8621 81.7072C100.738 81.7072 101.577 82.0533 102.196 82.6693C102.815 83.2852 103.163 84.1207 103.163 84.9918C103.163 85.8629 102.815 86.6983 102.196 87.3143C101.577 87.9303 100.738 88.2763 99.8621 88.2763C98.9867 88.2763 98.1471 87.9303 97.528 87.3143C96.909 86.6983 96.5613 85.8629 96.5613 84.9918C96.5613 84.1207 96.909 83.2852 97.528 82.6693C98.1471 82.0533 98.9867 81.7072 99.8621 81.7072ZM80.0736 81.7072C80.9491 81.7072 81.7887 82.0533 82.4077 82.6693C83.0267 83.2852 83.3745 84.1207 83.3745 84.9918C83.3745 85.8629 83.0267 86.6983 82.4077 87.3143C81.7887 87.9303 80.9491 88.2763 80.0736 88.2763C79.1982 88.2763 78.3586 87.9303 77.7396 87.3143C77.1206 86.6983 76.7728 85.8629 76.7728 84.9918C76.7728 84.1207 77.1206 83.2852 77.7396 82.6693C78.3586 82.0533 79.1982 81.7072 80.0736 81.7072ZM70.1712 81.7072C71.0466 81.7072 71.8862 82.0533 72.5052 82.6693C73.1242 83.2852 73.472 84.1207 73.472 84.9918C73.472 85.8629 73.1242 86.6983 72.5052 87.3143C71.8862 87.9303 71.0466 88.2763 70.1712 88.2763C69.2957 88.2763 68.4562 87.9303 67.8371 87.3143C67.2181 86.6983 66.8703 85.8629 66.8703 84.9918C66.8703 84.1207 67.2181 83.2852 67.8371 82.6693C68.4562 82.0533 69.2957 81.7072 70.1712 81.7072ZM89.9761 81.7072C90.8515 81.7072 91.6911 82.0533 92.3102 82.6693C92.9292 83.2852 93.2769 84.1207 93.2769 84.9918C93.2769 85.8629 92.9292 86.6983 92.3102 87.3143C91.6911 87.9303 90.8515 88.2763 89.9761 88.2763C89.1007 88.2763 88.2611 87.9303 87.6421 87.3143C87.0231 86.6983 86.6753 85.8629 86.6753 84.9918C86.6753 84.1207 87.0231 83.2852 87.6421 82.6693C88.2611 82.0533 89.1007 81.7072 89.9761 81.7072ZM65.2034 71.8536C66.0789 71.8536 66.9184 72.1997 67.5375 72.8156C68.1565 73.4316 68.5042 74.2671 68.5042 75.1382C68.5042 76.0093 68.1565 76.8447 67.5375 77.4607C66.9184 78.0767 66.0789 78.4227 65.2034 78.4227C64.328 78.4227 63.4884 78.0767 62.8694 77.4607C62.2504 76.8447 61.9026 76.0093 61.9026 75.1382C61.9026 74.2671 62.2504 73.4316 62.8694 72.8156C63.4884 72.1997 64.328 71.8536 65.2034 71.8536ZM75.0894 71.8536C75.9648 71.8536 76.8044 72.1997 77.4234 72.8156C78.0425 73.4316 78.3902 74.2671 78.3902 75.1382C78.3902 76.0093 78.0425 76.8447 77.4234 77.4607C76.8044 78.0767 75.9648 78.4227 75.0894 78.4227C74.214 78.4227 73.3744 78.0767 72.7554 77.4607C72.1363 76.8447 71.7886 76.0093 71.7886 75.1382C71.7886 74.2671 72.1363 73.4316 72.7554 72.8156C73.3744 72.1997 74.214 71.8536 75.0894 71.8536ZM84.9919 71.8536C85.8673 71.8536 86.7069 72.1997 87.3259 72.8156C87.9449 73.4316 88.2927 74.2671 88.2927 75.1382C88.2927 76.0093 87.9449 76.8447 87.3259 77.4607C86.7069 78.0767 85.8673 78.4227 84.9919 78.4227C84.1164 78.4227 83.2769 78.0767 82.6578 77.4607C82.0388 76.8447 81.691 76.0093 81.691 75.1382C81.691 74.2671 82.0388 73.4316 82.6578 72.8156C83.2769 72.1997 84.1164 71.8536 84.9919 71.8536ZM94.8943 71.8536C95.7698 71.8536 96.6094 72.1997 97.2284 72.8156C97.8474 73.4316 98.1952 74.2671 98.1952 75.1382C98.1952 76.0093 97.8474 76.8447 97.2284 77.4607C96.6094 78.0767 95.7698 78.4227 94.8943 78.4227C94.0189 78.4227 93.1793 78.0767 92.5603 77.4607C91.9413 76.8447 91.5935 76.0093 91.5935 75.1382C91.5935 74.2671 91.9413 73.4316 92.5603 72.8156C93.1793 72.1997 94.0189 71.8536 94.8943 71.8536ZM104.797 71.8536C105.672 71.8536 106.512 72.1997 107.131 72.8156C107.75 73.4316 108.098 74.2671 108.098 75.1382C108.098 76.0093 107.75 76.8447 107.131 77.4607C106.512 78.0767 105.672 78.4227 104.797 78.4227C103.921 78.4227 103.082 78.0767 102.463 77.4607C101.844 76.8447 101.496 76.0093 101.496 75.1382C101.496 74.2671 101.844 73.4316 102.463 72.8156C103.082 72.1997 103.921 71.8536 104.797 71.8536Z" fill="#EC7979"/>
<circle cx="85.0001" cy="85" r="45.5" stroke="#EC7979"/>
</symbol>

<symbol viewBox="0 0 92 92" fill="none" id='lightening'>
<path d="M75.7308 117.811C75.2572 117.608 74.8637 117.249 74.6123 116.793C74.3608 116.336 74.2659 115.807 74.3423 115.289L78.5542 87.3575H67.3765C67.0221 87.3672 66.6703 87.2939 66.3482 87.1432C66.026 86.9925 65.7422 86.7684 65.5186 86.4882C65.2949 86.2081 65.1375 85.8793 65.0584 85.5274C64.9793 85.1754 64.9806 84.8096 65.0622 84.4583L72.0049 53.8158C72.1271 53.2885 72.4239 52.8201 72.8454 52.4895C73.2669 52.1589 73.7874 51.9864 74.3192 52.0008H97.4615C97.8072 51.9996 98.1488 52.0774 98.4612 52.2283C98.7735 52.3792 99.0488 52.5995 99.2666 52.873C99.4875 53.1495 99.6439 53.4735 99.724 53.8206C99.8042 54.1676 99.806 54.5287 99.7294 54.8765L95.7258 73.2149H106.718C107.152 73.214 107.577 73.3373 107.946 73.5706C108.314 73.804 108.61 74.1381 108.801 74.5348C108.967 74.9156 109.031 75.3343 108.986 75.7484C108.941 76.1624 108.79 76.557 108.547 76.892L78.4616 116.963C78.2583 117.27 77.9868 117.524 77.6692 117.704C77.3515 117.884 76.9967 117.986 76.6334 118C76.3237 117.994 76.0178 117.93 75.7308 117.811ZM89.9402 77.9291L94.5687 56.7151H76.1705L70.2924 82.6433H83.9695L80.2899 106.874L102.09 77.9291H89.9402Z" fill="#EC7979"/>
<circle cx="85" cy="85" r="45.5" stroke="#EC7979"/>
</symbol>

<symbol width="130" height="10" viewBox="0 0 130 10" fill="none" id='slider'>
<circle cx="124.744" cy="4.74388" r="4.24388" stroke="#86878B"/>
<circle cx="64.7439" cy="4.74388" r="4.24388" fill="#86878B" stroke="#86878B"/>
<circle cx="4.74388" cy="4.74388" r="4.24388" stroke="#86878B"/>
</symbol>
</svg>